<mxfile host="app.diagrams.net" agent="Mozilla/5.0 (Windows NT 10.0; Win64; x64) AppleWebKit/537.36 (KHTML, like Gecko) Chrome/130.0.0.0 Safari/537.36" version="24.8.2">
  <diagram name="Страница — 1" id="ANqT0nUPXn9WEi_-l6WZ">
    <mxGraphModel dx="989" dy="524" grid="1" gridSize="10" guides="1" tooltips="1" connect="1" arrows="1" fold="1" page="1" pageScale="1" pageWidth="827" pageHeight="1169" math="0" shadow="0">
      <root>
        <mxCell id="0" />
        <mxCell id="1" parent="0" />
        <mxCell id="uIEKekIjiX6liNkG3Nph-18" style="edgeStyle=orthogonalEdgeStyle;rounded=0;orthogonalLoop=1;jettySize=auto;html=1;entryX=0.5;entryY=0;entryDx=0;entryDy=0;" edge="1" parent="1" source="uIEKekIjiX6liNkG3Nph-8" target="uIEKekIjiX6liNkG3Nph-12">
          <mxGeometry relative="1" as="geometry" />
        </mxCell>
        <mxCell id="uIEKekIjiX6liNkG3Nph-8" value="a, b" style="shape=parallelogram;perimeter=parallelogramPerimeter;whiteSpace=wrap;html=1;fixedSize=1;" vertex="1" parent="1">
          <mxGeometry x="340" y="110" width="120" height="60" as="geometry" />
        </mxCell>
        <mxCell id="uIEKekIjiX6liNkG3Nph-20" style="edgeStyle=orthogonalEdgeStyle;rounded=0;orthogonalLoop=1;jettySize=auto;html=1;entryX=0.5;entryY=0;entryDx=0;entryDy=0;" edge="1" parent="1" source="uIEKekIjiX6liNkG3Nph-12" target="uIEKekIjiX6liNkG3Nph-19">
          <mxGeometry relative="1" as="geometry" />
        </mxCell>
        <mxCell id="uIEKekIjiX6liNkG3Nph-12" value="suma, count = 0" style="rounded=0;whiteSpace=wrap;html=1;" vertex="1" parent="1">
          <mxGeometry x="340" y="190" width="120" height="60" as="geometry" />
        </mxCell>
        <mxCell id="uIEKekIjiX6liNkG3Nph-15" style="edgeStyle=orthogonalEdgeStyle;rounded=0;orthogonalLoop=1;jettySize=auto;html=1;entryX=0.5;entryY=0;entryDx=0;entryDy=0;" edge="1" parent="1" source="uIEKekIjiX6liNkG3Nph-14" target="uIEKekIjiX6liNkG3Nph-8">
          <mxGeometry relative="1" as="geometry" />
        </mxCell>
        <mxCell id="uIEKekIjiX6liNkG3Nph-14" value="Початок" style="rounded=1;whiteSpace=wrap;html=1;" vertex="1" parent="1">
          <mxGeometry x="340" y="30" width="120" height="60" as="geometry" />
        </mxCell>
        <mxCell id="uIEKekIjiX6liNkG3Nph-24" style="edgeStyle=orthogonalEdgeStyle;rounded=0;orthogonalLoop=1;jettySize=auto;html=1;entryX=0;entryY=0.5;entryDx=0;entryDy=0;" edge="1" parent="1" source="uIEKekIjiX6liNkG3Nph-19" target="uIEKekIjiX6liNkG3Nph-25">
          <mxGeometry relative="1" as="geometry">
            <mxPoint x="559.9999999999998" y="380" as="targetPoint" />
          </mxGeometry>
        </mxCell>
        <mxCell id="uIEKekIjiX6liNkG3Nph-35" value="" style="edgeStyle=orthogonalEdgeStyle;rounded=0;orthogonalLoop=1;jettySize=auto;html=1;" edge="1" parent="1" source="uIEKekIjiX6liNkG3Nph-19" target="uIEKekIjiX6liNkG3Nph-34">
          <mxGeometry relative="1" as="geometry" />
        </mxCell>
        <mxCell id="uIEKekIjiX6liNkG3Nph-19" value="a&amp;lt;=b" style="rhombus;whiteSpace=wrap;html=1;" vertex="1" parent="1">
          <mxGeometry x="335" y="270" width="130" height="80" as="geometry" />
        </mxCell>
        <mxCell id="uIEKekIjiX6liNkG3Nph-30" value="" style="edgeStyle=orthogonalEdgeStyle;rounded=0;orthogonalLoop=1;jettySize=auto;html=1;" edge="1" parent="1" source="uIEKekIjiX6liNkG3Nph-25" target="uIEKekIjiX6liNkG3Nph-29">
          <mxGeometry relative="1" as="geometry" />
        </mxCell>
        <mxCell id="uIEKekIjiX6liNkG3Nph-25" value="suma/count" style="shape=parallelogram;perimeter=parallelogramPerimeter;whiteSpace=wrap;html=1;fixedSize=1;" vertex="1" parent="1">
          <mxGeometry x="500" y="280" width="120" height="60" as="geometry" />
        </mxCell>
        <mxCell id="uIEKekIjiX6liNkG3Nph-29" value="Кінець" style="rounded=1;whiteSpace=wrap;html=1;" vertex="1" parent="1">
          <mxGeometry x="500" y="360" width="120" height="60" as="geometry" />
        </mxCell>
        <mxCell id="uIEKekIjiX6liNkG3Nph-31" value="Yes" style="text;html=1;align=center;verticalAlign=middle;whiteSpace=wrap;rounded=0;" vertex="1" parent="1">
          <mxGeometry x="384" y="350" width="60" height="30" as="geometry" />
        </mxCell>
        <mxCell id="uIEKekIjiX6liNkG3Nph-32" value="&lt;span style=&quot;color: rgb(0, 0, 0); font-family: Helvetica; font-size: 12px; font-style: normal; font-variant-ligatures: normal; font-variant-caps: normal; font-weight: 400; letter-spacing: normal; orphans: 2; text-align: center; text-indent: 0px; text-transform: none; widows: 2; word-spacing: 0px; -webkit-text-stroke-width: 0px; white-space: normal; background-color: rgb(251, 251, 251); text-decoration-thickness: initial; text-decoration-style: initial; text-decoration-color: initial; display: inline !important; float: none;&quot;&gt;No&lt;/span&gt;&lt;div&gt;&lt;span style=&quot;color: rgb(0, 0, 0); font-family: Helvetica; font-size: 12px; font-style: normal; font-variant-ligatures: normal; font-variant-caps: normal; font-weight: 400; letter-spacing: normal; orphans: 2; text-align: center; text-indent: 0px; text-transform: none; widows: 2; word-spacing: 0px; -webkit-text-stroke-width: 0px; white-space: normal; background-color: rgb(251, 251, 251); text-decoration-thickness: initial; text-decoration-style: initial; text-decoration-color: initial; display: inline !important; float: none;&quot;&gt;&lt;br&gt;&lt;/span&gt;&lt;/div&gt;" style="text;whiteSpace=wrap;html=1;" vertex="1" parent="1">
          <mxGeometry x="465" y="310" width="50" height="40" as="geometry" />
        </mxCell>
        <mxCell id="uIEKekIjiX6liNkG3Nph-36" style="edgeStyle=orthogonalEdgeStyle;rounded=0;orthogonalLoop=1;jettySize=auto;html=1;entryX=0;entryY=0.5;entryDx=0;entryDy=0;" edge="1" parent="1" source="uIEKekIjiX6liNkG3Nph-34" target="uIEKekIjiX6liNkG3Nph-19">
          <mxGeometry relative="1" as="geometry">
            <Array as="points">
              <mxPoint x="270" y="420" />
              <mxPoint x="270" y="310" />
            </Array>
          </mxGeometry>
        </mxCell>
        <mxCell id="uIEKekIjiX6liNkG3Nph-34" value="suma+=(-123.45*a)-a**3&lt;div&gt;count+=1&lt;div&gt;&lt;span style=&quot;background-color: initial;&quot;&gt;a+=0.2&lt;/span&gt;&lt;/div&gt;&lt;/div&gt;" style="whiteSpace=wrap;html=1;" vertex="1" parent="1">
          <mxGeometry x="322" y="390" width="156" height="60" as="geometry" />
        </mxCell>
      </root>
    </mxGraphModel>
  </diagram>
</mxfile>
